<svg xmlns="http://www.w3.org/2000/svg"><metadata/><defs><font id="LLAkkuratWeb-Italic" horiz-adv-x="1167"><font-face ascent="1604" descent="-444" units-per-em="2048"/><glyph horiz-adv-x="0"/><glyph horiz-adv-x="0"/><glyph horiz-adv-x="454"/><glyph horiz-adv-x="454"/><glyph horiz-adv-x="454"/><glyph horiz-adv-x="454"/><glyph d="M133 0l41 223h219l-41 -223h-219zM258 440l47 553l82 459h217l-82 -459l-145 -553h-119z" horiz-adv-x="669" unicode="!"/><glyph d="M252 887l10 313l45 252h199l-45 -252l-101 -313h-108zM598 887l10 313l45 252h199l-45 -252l-100 -313h-109z" horiz-adv-x="901" unicode="&quot;"/><glyph d="M74 391l28 150h283l107 342h-265l29 151h283l123 389h153l-121 -389h324l121 389h153l-121 -389h256l-26 -151h-279l-106 -342h258l-29 -150h-276l-123 -391h-154l123 391h-323l-123 -391h-154l121 391h-262zM539 541h323l107 342h-324z" horiz-adv-x="1503" unicode="#"/><glyph d="M29 449q0 31 2 47h178q-2 -16 -2 -50q0 -112 63 -182t174 -96l88 498l-73 22q-135 41 -213 127.5t-78 210.5q0 96 43.5 177.5t115 135t161.5 83.5t184 30l30 186h119l-35 -198q156 -31 254.5 -142t98.5 -268h-183q0 98 -51 164t-145 88l-82 -471l59 -14q134 -32 226 -129 t92 -226q0 -100 -41 -184t-113 -143q-139 -114 -366 -117l-33 -188h-121l37 198q-174 30 -281.5 148.5t-107.5 292.5zM348 1036q0 -124 158 -176l57 -18l78 452q-123 -3 -208 -72t-85 -186zM563 158q120 2 214.5 72.5t94.5 187.5q0 78 -51.5 129.5t-134.5 77.5l-39 12z" unicode="$"/><glyph d="M186 1010q0 95 30 192t87 160q107 119 260 119q138 0 221.5 -89t83.5 -225q0 -96 -29.5 -191.5t-86.5 -158.5q-109 -121 -260 -121q-138 0 -222 89t-84 225zM250 41l1306 1450l93 -88l-1307 -1452zM342 1014q0 -81 39.5 -130.5t120.5 -49.5q56 0 104 38q51 42 78 126.5 t27 164.5q0 81 -39 130.5t-119 49.5q-59 0 -107 -38q-51 -41 -77.5 -125.5t-26.5 -165.5zM1026 287q0 95 30 192t87 160q107 119 258 119q138 0 221.5 -89t83.5 -225q0 -95 -30 -191t-87 -159q-109 -121 -258 -121q-138 0 -221.5 89t-83.5 225zM1182 291q0 -82 38 -131 t119 -49q58 0 107 39q51 42 76.5 125.5t25.5 164.5q0 82 -38 131.5t-117 49.5q-60 0 -109 -39q-51 -41 -76.5 -125t-25.5 -166z" horiz-adv-x="1888" unicode="%"/><glyph d="M100 344q0 66 20 126t52 105.5t80.5 88.5t96 74t108.5 63l-54 76q-71 106 -71 215q0 169 113.5 278t295.5 109q151 0 242.5 -91t91.5 -208q0 -124 -69 -218t-179 -151q-81 -40 -122 -63l247 -342q96 133 131 403h310l-23 -150h-149q-18 -100 -65.5 -205t-111.5 -178 l199 -276h-211l-100 141q-72 -69 -186 -118.5t-244 -49.5q-103 0 -193.5 42.5t-149.5 129t-59 199.5zM274 360q0 -101 69 -163t171 -62q111 0 187 31.5t141 99.5l-299 416q-15 -9 -46.5 -25.5t-47.5 -25.5q-79 -48 -127 -117t-48 -154zM510 1104q0 -82 55 -160 q38 -51 56 -78l94 47q84 42 136 107t52 149q0 60 -47 111t-129 51q-96 0 -156.5 -64.5t-60.5 -162.5z" horiz-adv-x="1501" unicode="&amp;"/><glyph d="M240 887l12 313l45 252h197l-45 -252l-99 -313h-110z" horiz-adv-x="534" unicode="'"/><glyph d="M100 440q0 120 23 258q44 252 177 487.5t327 389.5l92 -94q-184 -170 -295.5 -367t-153.5 -442q-22 -121 -22 -254q0 -338 168 -660l-121 -55q-96 156 -145.5 347.5t-49.5 389.5z" horiz-adv-x="612" unicode="("/><glyph d="M-129 -225q186 188 298 390t155 447q22 124 22 260q0 328 -166 637l115 68q98 -149 148.5 -338.5t50.5 -388.5q0 -127 -21 -250q-44 -253 -178 -500t-328 -417z" horiz-adv-x="610" unicode=")"/><glyph d="M186 1055l74 155l291 -123l29 338h180l-74 -338l322 123l34 -163l-337 -82l167 -265l-149 -94l-133 281l-234 -281l-125 103l258 260z" horiz-adv-x="1083" unicode="*"/><glyph d="M109 549v141h491v506h143v-506h494v-141h-494v-539h-143v539h-491z" horiz-adv-x="1386" unicode="+"/><glyph d="M2 -225q84 34 120 84t52 141h-131l43 240h254l-43 -240q-21 -119 -81.5 -197.5t-176.5 -124.5z" horiz-adv-x="593" unicode=","/><glyph d="M106 537l29 161h608l-28 -161h-609z" horiz-adv-x="886" unicode="-"/><glyph d="M47 0l43 244h244l-43 -244h-244z" horiz-adv-x="593" unicode="."/><glyph d="M-102 -27l890 1506h146l-891 -1506h-145z" horiz-adv-x="808" unicode="/"/><glyph d="M80 442q0 114 35 312q18 104 34 170.5t46.5 155t78 157.5t113.5 121q117 92 277 92q192 0 305 -119q118 -124 118 -348q0 -130 -32 -311q-18 -101 -34.5 -170t-47.5 -156t-79 -156.5t-114 -121.5q-124 -95 -276 -95q-165 0 -285 105q-139 124 -139 364zM258 438 q0 -51 8.5 -95t27.5 -83t47.5 -67t71.5 -44t97 -16q55 0 102 20.5t79 45t61 78.5t44 85.5t33 104t22.5 96.5t17.5 98q3 18 5 27q3 17 10 57.5t10.5 63t8 56.5t6.5 63.5t2 58.5q0 51 -8.5 95t-27.5 83t-47.5 67t-71.5 44t-97 16q-55 0 -102 -20.5t-79 -45t-61 -78.5 t-44 -85.5t-33 -104t-22.5 -96.5t-17.5 -98q-3 -18 -5 -27q-3 -17 -10 -57.5t-10.5 -63t-8 -56.5t-6.5 -63.5t-2 -58.5z" unicode="0"/><glyph d="M279 981l34 201l394 241h167l-251 -1423h-177l213 1219z" unicode="1"/><glyph d="M-4 0l27 156l729 690q122 115 122 254q0 75 -51 129q-62 65 -178 65q-90 0 -163.5 -62t-94.5 -175h-180q23 173 149 283t303 110q192 0 299 -107q95 -98 95 -233q0 -198 -185 -371l-602 -575h617l-27 -164h-860z" unicode="2"/><glyph d="M59 367q0 19 4 65h181q-4 -36 -4 -53q0 -116 68.5 -182t185.5 -66q126 0 207 85.5t81 213.5q0 109 -68.5 168t-178.5 59h-86l28 162h84q133 0 219 66t86 196q0 97 -68 155t-165 58q-107 0 -178.5 -64.5t-92.5 -170.5h-176q0 60 36.5 134t82.5 122q132 135 342 135 q106 0 196 -40t148 -121.5t58 -188.5q0 -125 -76 -231t-195 -144q86 -38 133 -122t47 -183q0 -127 -64.5 -230t-172.5 -160t-234 -57q-122 0 -217.5 44.5t-153 135.5t-57.5 214z" unicode="3"/><glyph d="M-2 303l31 182l708 938h195l-729 -962h475l74 424h178l-74 -424h191l-27 -158h-193l-53 -303h-176l53 303h-653z" unicode="4"/><glyph d="M90 377q0 41 2 61h174q-2 -18 -2 -55q0 -114 70 -182t184 -68q99 0 174 60t110.5 147t35.5 182q0 121 -65.5 191.5t-186.5 70.5q-143 0 -228 -104l-188 39l166 704h778l-31 -157h-622l-105 -432q48 53 123.5 78.5t157.5 25.5q177 0 278 -109t101 -286q0 -153 -60 -281.5 t-179 -208.5t-275 -80q-176 0 -294 111t-118 293z" unicode="5"/><glyph d="M104 449q0 110 29 284q21 120 41.5 204.5t63 182.5t100.5 166q139 164 352 164q209 0 318 -143q71 -94 71 -222h-178q0 80 -51 138q-61 69 -174 69q-104 0 -180 -69q-38 -33 -67.5 -83t-50.5 -112.5t-33.5 -113t-25.5 -119.5q41 64 126.5 102.5t179.5 38.5 q184 0 292.5 -114t108.5 -296q0 -128 -51 -244t-146 -198q-127 -111 -309 -111q-173 0 -287 111q-129 124 -129 365zM279 403q0 -120 69 -196t189 -76q98 0 178 66q64 54 98.5 138.5t34.5 174.5q0 123 -67.5 197.5t-190.5 74.5q-108 0 -184 -69q-62 -55 -94.5 -138 t-32.5 -172z" unicode="6"/><glyph d="M102 0l826 1266h-731l28 157h924l-29 -157l-821 -1266h-197z" unicode="7"/><glyph d="M61 360q0 136 80 247t211 155q-66 45 -104.5 118t-38.5 156q0 81 33 156t92 133q131 125 332 125q192 0 309 -117q100 -100 100 -237q0 -123 -70.5 -226t-185.5 -149q71 -37 118.5 -122t47.5 -179q0 -91 -38.5 -175.5t-106.5 -146.5q-134 -125 -340 -125 q-95 0 -182.5 31.5t-145.5 91.5q-111 114 -111 264zM240 369q0 -110 77 -176t189 -66q132 0 217.5 85t85.5 214q0 110 -76.5 176t-187.5 66q-132 0 -218.5 -85t-86.5 -214zM385 1036q0 -103 70 -162t174 -59q114 0 192 77t78 191q0 100 -71.5 157.5t-172.5 57.5 q-115 0 -192.5 -74.5t-77.5 -187.5z" unicode="8"/><glyph d="M84 334l2 35h174v-27q0 -85 64 -149q63 -60 163 -60t179 72q71 63 110.5 170.5t67.5 253.5q-41 -63 -126 -101.5t-179 -38.5q-90 0 -173 37.5t-137 106.5q-90 114 -90 266q0 128 51 244t148 198q125 109 311 109q119 0 212.5 -52t146.5 -155q53 -106 53 -266 q0 -111 -29 -285q-33 -188 -76.5 -321.5t-126.5 -231.5q-63 -74 -153 -119t-201 -45q-96 0 -181 37t-140 111q-70 93 -70 211zM317 915q0 -99 48 -172q67 -100 208 -100q101 0 183 68q63 53 96 136.5t33 174.5q0 99 -47 170q-68 102 -205 102q-101 0 -184 -69 q-64 -54 -98 -137t-34 -173z" unicode="9"/><glyph d="M76 -2l41 225h227l-41 -225h-227zM219 809l41 227h227l-41 -227h-227z" horiz-adv-x="614" unicode=":"/><glyph d="M31 -213q79 32 111.5 79.5t47.5 133.5h-116l39 225h227l-39 -225q-21 -117 -75.5 -188.5t-164.5 -114.5zM217 805l39 229h227l-39 -229h-227z" horiz-adv-x="614" unicode=";"/><glyph d="M72 625l651 649l100 -98l-551 -551l551 -551l-98 -101z" horiz-adv-x="958" unicode="&lt;"/><glyph d="M178 274v158h987v-158h-987zM178 705v157h987v-157h-987z" horiz-adv-x="1409" unicode="="/><glyph d="M152 74l550 551l-550 551l100 98l651 -649l-653 -652z" horiz-adv-x="958" unicode="&gt;"/><glyph d="M94 1051q32 180 142 290q64 64 158 101t200 37q187 0 301 -111q98 -94 98 -238q0 -167 -129 -303q-48 -50 -144 -112.5t-132 -100.5q-67 -70 -84 -176l-8 -51h-160l8 72q16 156 100 246q41 44 133.5 105t129.5 97q27 26 40 40.5t31.5 41.5t26.5 59.5t8 73.5q0 70 -45 125 q-62 74 -184 74q-126 0 -204 -74.5t-99 -195.5h-187zM244 0l39 225h219l-39 -225h-219z" horiz-adv-x="1013" unicode="?"/><glyph d="M125 580q0 252 115 457.5t321.5 323.5t464.5 118q145 0 273.5 -46t225 -129t152.5 -207t56 -272q0 -136 -45 -262.5t-132 -210.5q-64 -62 -126 -92.5t-152 -30.5q-69 0 -118 34.5t-62 80.5q-101 -115 -260 -115q-115 0 -197 82q-94 91 -94 240q0 74 16.5 145t51 133.5 t82.5 110t115 75t144 27.5q64 0 121 -27.5t86 -80.5l51 86h138l-127 -508q-8 -36 -8 -57q0 -40 21 -60t58 -20q77 0 146 69q65 63 95 168.5t30 212.5q0 154 -75 269t-199 173t-277 58q-158 0 -294.5 -61t-228.5 -163.5t-144 -237.5t-52 -283q0 -275 174.5 -440t452.5 -165 q105 0 222 27t206 70l-29 -160q-85 -41 -198 -64.5t-214 -23.5q-159 0 -301.5 52t-250.5 147t-171 239.5t-63 317.5zM719 565q0 -84 40 -136t122 -52q60 0 106.5 34t72 88.5t38 112t12.5 113.5q0 82 -41.5 129t-122.5 47q-72 0 -135 -70q-45 -51 -68.5 -124t-23.5 -142z" horiz-adv-x="1849" unicode="@"/><glyph d="M-115 0l768 1452h213l260 -1452h-182l-57 344h-633l-176 -344h-193zM342 516h514l-127 754z" horiz-adv-x="1259" unicode="A"/><glyph d="M76 0l256 1452h573q171 0 279 -97.5t108 -256.5q0 -117 -78.5 -223t-187.5 -132q79 -30 133.5 -118t54.5 -181q0 -111 -43.5 -198t-117.5 -139.5t-166 -79.5t-195 -27h-616zM285 168h426q136 0 226.5 75t90.5 210q0 99 -69.5 160t-174.5 61h-409zM403 834h406 q123 0 207 66.5t84 186.5q0 92 -63.5 147.5t-159.5 55.5h-394z" horiz-adv-x="1368" unicode="B"/><glyph d="M82 518q0 220 68.5 443.5t205.5 355.5q169 162 400 162q220 0 362 -148q64 -67 98.5 -156t34.5 -182h-188q0 141 -92 230q-85 82 -226 82q-147 0 -262 -115q-102 -102 -158.5 -296.5t-56.5 -365.5q0 -167 85.5 -274t248.5 -107q71 0 137 26t109 69q89 86 113 184h190 q-20 -94 -74.5 -182.5t-130.5 -149.5q-150 -121 -354 -121q-156 0 -273 72.5t-177 195.5t-60 277z" horiz-adv-x="1265" unicode="C"/><glyph d="M76 0l256 1452h465q227 0 361 -147.5t134 -376.5q0 -214 -66.5 -429.5t-199.5 -344.5q-160 -154 -422 -154h-528zM289 168h338q77 0 151.5 29t122.5 77q99 98 154 288t55 356q0 160 -87.5 263t-246.5 103h-291z" horiz-adv-x="1378" unicode="D"/><glyph d="M76 0l254 1452h958l-28 -168h-775l-79 -442h686l-31 -170h-682l-90 -504h782l-27 -168h-968z" horiz-adv-x="1265" unicode="E"/><glyph d="M76 0l256 1452h932l-29 -168h-748l-84 -475h672l-31 -168h-671l-113 -641h-184z" horiz-adv-x="1191" unicode="F"/><glyph d="M82 518q0 106 14.5 212t45.5 213.5t85.5 204.5t126.5 167q171 164 406 164q118 0 210 -40.5t152 -99.5q68 -65 105 -155.5t37 -177.5h-185q0 78 -37 146.5t-102 107.5q-75 45 -195 45q-147 0 -264 -117q-71 -71 -121 -193t-71 -240.5t-21 -226.5q0 -198 103 -295 q89 -86 233 -86q97 0 175 37.5t130 103.5t84.5 144t48.5 170h-385l31 168h551l-137 -770h-133v141q-65 -83 -166 -125.5t-211 -42.5q-214 0 -352 131q-77 73 -117.5 180.5t-40.5 233.5z" horiz-adv-x="1353" unicode="G"/><glyph d="M76 0l256 1452h184l-106 -604h690l106 604h185l-256 -1452h-185l119 670h-690l-119 -670h-184z" horiz-adv-x="1466" unicode="H"/><glyph d="M76 0l256 1452h188l-256 -1452h-188z" horiz-adv-x="595" unicode="I"/><glyph d="M-41 340q0 52 10 100h181q-9 -61 -9 -82q0 -101 51.5 -156t153.5 -55q100 0 169 69t87 171l189 1065h184l-191 -1081q-32 -179 -151 -288.5t-301 -109.5q-77 0 -149 26.5t-124 78.5q-100 100 -100 262z" horiz-adv-x="1038" unicode="J"/><glyph d="M76 0l256 1452h184l-135 -766l788 766h238l-571 -553l364 -899h-201l-305 762l-360 -350l-74 -412h-184z" horiz-adv-x="1355" unicode="K"/><glyph d="M76 0l256 1452h184l-225 -1282h698l-31 -170h-882z" horiz-adv-x="1097" unicode="L"/><glyph d="M76 0l256 1452h256l225 -1182l641 1182h270l-256 -1452h-178l221 1225l-663 -1205h-143l-240 1215l-211 -1235h-178z" horiz-adv-x="1800" unicode="M"/><glyph d="M76 0l256 1452h209l497 -1192l205 1192h184l-256 -1452h-208l-498 1188l-205 -1188h-184z" horiz-adv-x="1503" unicode="N"/><glyph d="M82 518q0 139 26.5 281t91 285t158.5 233q169 162 392 162q119 0 216 -42.5t159.5 -116.5t96 -173t33.5 -213q0 -141 -25 -281.5t-88.5 -284t-156.5 -233.5q-169 -162 -393 -162q-156 0 -273 72.5t-177 195.5t-60 277zM268 528q0 -167 85.5 -274t248.5 -107 q143 0 256 113q101 101 155 295.5t54 368.5q0 168 -83 274.5t-245 106.5q-139 0 -254 -115q-102 -102 -159.5 -297t-57.5 -365z" horiz-adv-x="1341" unicode="O"/><glyph d="M76 0l256 1452h526q181 0 302.5 -98.5t121.5 -276.5q0 -159 -72 -276.5t-194 -176.5t-279 -59h-379l-98 -565h-184zM389 729h354q158 0 253.5 89t95.5 245q0 113 -76 168t-193 55h-336z" horiz-adv-x="1275" unicode="P"/><glyph d="M82 518q0 139 26.5 281t91 285t158.5 233q169 162 392 162q119 0 216 -42.5t159.5 -116.5t96 -173t33.5 -213q0 -139 -26 -280.5t-89 -284t-155 -234.5l-8 -8l113 -170l-134 -92l-110 170q-118 -62 -254 -62q-156 0 -273 72.5t-177 195.5t-60 277zM268 528 q0 -167 85.5 -274t248.5 -107q85 0 150 35l-142 217l129 93l138 -211q93 106 141.5 291.5t48.5 351.5q0 168 -83 274.5t-245 106.5q-139 0 -254 -115q-102 -102 -159.5 -297t-57.5 -365z" horiz-adv-x="1341" unicode="Q"/><glyph d="M76 0l256 1452h547q188 0 304.5 -108.5t116.5 -276.5q0 -98 -37 -183t-96 -139q-82 -76 -213 -112l199 -633h-192l-189 608h-405l-107 -608h-184zM397 772h377q158 0 246 76.5t88 218.5q0 101 -67.5 160t-188.5 59h-365z" horiz-adv-x="1355" unicode="R"/><glyph d="M43 483h190q0 -134 74 -223q101 -119 309 -119q162 0 258 92q72 69 72 168q0 75 -51.5 134t-153.5 86l-221 55q-146 36 -233.5 125.5t-87.5 234.5q0 102 46 188t132 148q143 105 348 105q121 0 228 -45t177 -138q89 -119 89 -278h-191q0 90 -43 158q-83 135 -278 135 q-145 0 -236 -82q-82 -72 -82 -174q0 -80 49.5 -129.5t132.5 -69.5l232 -57q156 -39 246 -137t90 -236q0 -181 -119 -297q-76 -76 -188 -115t-238 -39q-134 0 -249.5 46t-192.5 139q-109 135 -109 325z" horiz-adv-x="1288" unicode="S"/><glyph d="M121 1282l31 170h1048l-31 -170h-432l-223 -1282h-186l225 1282h-432z" horiz-adv-x="1097" unicode="T"/><glyph d="M139 432q0 64 13 137l155 883h185l-160 -903q-10 -62 -10 -111q0 -144 84.5 -217.5t236.5 -73.5t250 95.5t125 249.5l170 960h184l-170 -965q-41 -233 -189.5 -373.5t-379.5 -140.5q-222 0 -358 125.5t-136 333.5z" horiz-adv-x="1417" unicode="U"/><glyph d="M117 1452h180l182 -1223l608 1223h199l-749 -1452h-187z" horiz-adv-x="1163" unicode="V"/><glyph d="M178 1452h172l23 -1178l534 1158h164l139 -1151l430 1171h175l-545 -1452h-187l-135 1171l-530 -1171h-203z" horiz-adv-x="1748" unicode="W"/><glyph d="M-109 0l588 733l-323 719h194l260 -588l463 588h207l-580 -719l330 -733h-194l-265 596l-469 -596h-211z" horiz-adv-x="1187" unicode="X"/><glyph d="M113 1452h186l260 -690l500 690h207l-641 -864l-103 -588h-186l106 588z" horiz-adv-x="1136" unicode="Y"/><glyph d="M-39 0l33 182l1010 1100h-809l30 170h1030l-32 -184l-1014 -1100h840l-31 -168h-1057z" horiz-adv-x="1253" unicode="Z"/><glyph d="M43 -233l315 1783h385l-22 -127h-244l-270 -1529h244l-23 -127h-385z" horiz-adv-x="628" unicode="["/><glyph d="M143 1479h136l358 -1506h-135z" horiz-adv-x="811" unicode="\"/><glyph d="M-139 -233l22 127h242l270 1529h-241l22 127h385l-315 -1783h-385z" horiz-adv-x="628" unicode="]"/><glyph d="M145 829l344 650h156l344 -650h-182l-240 461l-241 -461h-181z" horiz-adv-x="1101" unicode="^"/><glyph d="M-80 0h1014v-123h-1014v123z" horiz-adv-x="1107" unicode="_"/><glyph d="M129 1335l111 142l305 -252l-72 -92z" horiz-adv-x="483" unicode="`"/><glyph d="M53 416q0 146 50.5 284.5t146.5 231.5q134 131 315 131q88 0 162 -39q83 -44 121 -121l51 133h143l-182 -1036h-133v154q-43 -78 -131 -129.5t-176 -51.5q-157 0 -252 103q-115 121 -115 340zM231 416q0 -147 66 -223q60 -70 149 -70q77 0 144 49t109.5 126t67 167.5 t24.5 177.5q0 104 -39 170q-60 100 -177 100q-108 0 -196 -88q-72 -73 -110 -188t-38 -221z" horiz-adv-x="1161" unicode="a"/><glyph d="M57 0l260 1479h175l-95 -543q112 127 293 127q84 0 160 -35.5t123 -97.5q92 -122 92 -309q0 -151 -55 -298t-156 -239q-121 -111 -293 -111q-93 0 -179 45t-128 127l-51 -145h-146zM311 422q0 -60 14 -112t42 -95t77 -67.5t113 -24.5q103 0 182 76q74 70 111 186.5 t37 235.5q0 78 -23 141.5t-78.5 107t-136.5 43.5q-85 0 -151 -51q-58 -43 -100.5 -112t-61.5 -148q-25 -105 -25 -180z" horiz-adv-x="1193" unicode="b"/><glyph d="M53 399q0 96 19.5 189.5t61 179.5t101.5 151.5t147 104.5t191 39q171 0 283.5 -100t112.5 -269q0 -5 -1 -16t-1 -16h-179q0 4 1.5 11t1.5 11q0 103 -62 166t-164 63q-111 0 -196 -88q-70 -71 -104 -187.5t-34 -231.5q0 -145 78 -220q66 -63 168 -63q94 0 162 56t98 147 h174q-24 -153 -151.5 -253t-290.5 -100q-185 0 -300.5 118t-115.5 308z" horiz-adv-x="1067" unicode="c"/><glyph d="M61 416q0 138 48.5 274t138.5 230q136 143 332 143q60 0 116.5 -18t104.5 -57.5t71 -94.5l103 586h176l-260 -1479h-146v131q-52 -78 -135.5 -118t-175.5 -40q-78 0 -151 35.5t-123 97.5q-99 122 -99 310zM242 416q0 -58 13 -108.5t39.5 -93t73 -67t107.5 -24.5 q84 0 156 55q115 85 157 256q25 105 25 180q0 83 -20.5 147t-75 108t-139.5 44q-101 0 -181 -77q-75 -71 -115 -187.5t-40 -232.5z" horiz-adv-x="1193" unicode="d"/><glyph d="M53 432q0 139 50.5 271t142.5 223q137 137 338 137q183 0 293 -119q112 -121 112 -313q0 -86 -20 -168h-736q-2 -18 -2 -55q0 -129 70 -207t193 -78q81 0 145 45t98 123h181q-47 -148 -167.5 -233t-275.5 -85q-111 0 -202 46.5t-148 138.5q-72 119 -72 274zM256 612h555 q2 14 2 39q0 113 -63 188.5t-177 75.5q-116 0 -208 -96q-75 -75 -109 -207z" horiz-adv-x="1103" unicode="e"/><glyph d="M78 889l26 147h187l35 197q20 108 106.5 180t216.5 72q17 0 33.5 -1t28.5 -2t28.5 -4.5t24 -4.5t26 -6t22 -6t25 -7.5t23.5 -7.5l-26 -148q-98 37 -177 37q-62 0 -106.5 -35.5t-54.5 -93.5l-31 -170h301l-27 -147h-301l-155 -889h-174l157 889h-188z" horiz-adv-x="741" unicode="f"/><glyph d="M-41 -176q0 81 52 151t132 101q-80 55 -80 135q0 52 17 89t57 75q33 31 99 61q-95 98 -95 232q0 88 39 167.5t109 135.5q116 92 282 92q127 0 220 -55q33 63 91 97t124 34q36 0 73 -9l-24 -141q-18 6 -54 6q-39 0 -71 -17.5t-47 -47.5q69 -84 69 -205q0 -87 -37.5 -167.5 t-103.5 -137.5q-53 -45 -129.5 -70.5t-161.5 -25.5q-106 0 -178 34q-61 -15 -98 -55q-25 -25 -25 -59q0 -31 24.5 -52.5t65.5 -25.5l297 -31q133 -14 216 -84t83 -180q0 -129 -92 -221q-134 -131 -428 -131q-239 0 -354 123q-72 76 -72 182zM117 -158q0 -56 43 -102 q38 -39 103 -56.5t132 -17.5q207 0 289 82q47 47 47 111q0 114 -178 133l-262 28q-78 -13 -126 -58t-48 -120zM313 668q0 -96 60.5 -150.5t156.5 -54.5q107 0 177.5 75.5t70.5 182.5q0 95 -61.5 148t-157.5 53q-109 0 -177.5 -75t-68.5 -179z" horiz-adv-x="1077" unicode="g"/><glyph d="M57 0l260 1479h175l-101 -572q57 72 146 114t180 42q145 0 227 -82q72 -72 72 -199q0 -36 -17 -147l-112 -635h-174l110 623q15 86 15 114q0 86 -39 125q-47 47 -135 47q-71 0 -139 -45t-111 -110q-68 -103 -92 -248l-91 -506h-174z" horiz-adv-x="1177" unicode="h"/><glyph d="M57 0l185 1036h178l-184 -1036h-179zM270 1274l37 205h203l-37 -205h-203z" horiz-adv-x="548" unicode="i"/><glyph d="M-242 -387l25 135q27 -15 65.5 -26t67.5 -11q48 0 83.5 28t45.5 83l215 1214h176l-217 -1229q-20 -117 -89.5 -181t-178.5 -64q-99 0 -193 51zM285 1274l37 205h202l-37 -205h-202z" horiz-adv-x="571" unicode="j"/><glyph d="M57 0l262 1479h175l-168 -953l546 510h220q-190 -173 -447 -413l303 -623h-186l-246 504l-233 -219l-52 -285h-174z" horiz-adv-x="1101" unicode="k"/><glyph d="M92 176q0 30 12 98l213 1205h175l-222 -1246q-2 -8 -2 -22q0 -72 78 -72q38 0 82 13l-25 -142q-55 -22 -122 -22q-95 0 -144 55q-45 51 -45 133z" horiz-adv-x="587" unicode="l"/><glyph d="M57 0l183 1036h141v-135q54 83 135.5 122.5t175.5 39.5q109 0 182.5 -53t92.5 -140q54 84 147 138.5t203 54.5q74 0 135.5 -28t99.5 -79q52 -67 52 -168q0 -44 -9 -94l-122 -694h-175l117 659q8 44 8 91q0 157 -168 157q-85 0 -168 -73q-100 -85 -137 -283l-98 -551h-174 l117 659q8 44 8 91q0 157 -168 157q-85 0 -168 -73q-100 -85 -137 -283l-99 -551h-174z" horiz-adv-x="1765" unicode="m"/><glyph d="M57 0l183 1036h141v-143q55 77 148 123.5t188 46.5q145 0 227 -82q72 -72 72 -199q0 -36 -17 -147l-112 -635h-174l110 623q15 86 15 114q0 86 -39 125q-47 47 -135 47q-71 0 -139 -45t-111 -110q-68 -103 -92 -248l-91 -506h-174z" horiz-adv-x="1177" unicode="n"/><glyph d="M53 406q0 95 19.5 187.5t61.5 178t102 150t147.5 103t191.5 38.5q91 0 172 -35.5t136 -101.5q100 -121 100 -295q0 -95 -19.5 -187.5t-61.5 -178t-102 -150.5t-147.5 -103.5t-191.5 -38.5q-91 0 -171.5 36t-135.5 102q-101 122 -101 295zM231 410q0 -123 61.5 -205 t182.5 -82q71 0 128.5 33.5t94 86.5t61.5 121t35.5 134t10.5 129q0 123 -61.5 204.5t-182.5 81.5q-71 0 -128.5 -33.5t-94 -86t-61.5 -120.5t-35.5 -134t-10.5 -129z" horiz-adv-x="1110" unicode="o"/><glyph d="M-18 -444l260 1480h143v-123q49 73 131 111.5t172 38.5q82 0 158 -37t123 -100q92 -122 92 -305q0 -92 -19 -182.5t-59.5 -175t-98 -149t-140.5 -103t-181 -38.5q-95 0 -180 44t-127 128l-102 -589h-172zM315 422q0 -60 13.5 -112t41.5 -95t76.5 -67.5t112.5 -24.5 q99 0 180 78q74 70 109 185t35 235q0 79 -21.5 142.5t-75.5 107.5t-135 44q-91 0 -157 -51q-140 -106 -172 -360q-7 -47 -7 -82z" horiz-adv-x="1187" unicode="p"/><glyph d="M53 416q0 91 20.5 182t63.5 175t102.5 148.5t144.5 103t183 38.5q93 0 174.5 -45.5t112.5 -126.5l51 145h148l-260 -1478h-177l97 542q-49 -62 -128 -94.5t-163 -32.5q-78 0 -151.5 35.5t-123.5 97.5q-94 115 -94 310zM231 416q0 -58 13 -108.5t39 -93.5t72.5 -68 t107.5 -25q86 0 158 55q110 81 153 258q25 105 25 180q0 61 -12 112t-38 94.5t-73 68t-111 24.5q-98 0 -180 -79q-75 -71 -114.5 -186.5t-39.5 -231.5z" horiz-adv-x="1171" unicode="q"/><glyph d="M57 0l183 1036h141v-149q49 80 130.5 121t174.5 41q62 0 117 -15l-29 -170q-52 19 -108 19q-96 0 -181 -64q-123 -94 -166 -323l-88 -496h-174z" horiz-adv-x="784" unicode="r"/><glyph d="M33 311v37h174v-29q0 -77 67 -137q40 -36 87.5 -49.5t113.5 -13.5q108 0 178 61q54 47 54 113q0 104 -132 133l-196 47q-101 24 -160 80q-73 70 -76 168v7q0 148 121 245q115 90 285 90q104 0 198 -41.5t142 -124.5q49 -85 49 -172h-176q0 65 -41 117q-62 78 -189 78 q-113 0 -176 -68q-41 -44 -41 -102q0 -50 33 -80t78 -41q112 -24 242 -60q97 -26 156 -93t59 -161q0 -151 -119 -247q-118 -95 -299 -95q-248 0 -367 150q-65 81 -65 188z" horiz-adv-x="1046" unicode="s"/><glyph d="M59 887l27 149h205l47 264l184 54l-57 -318h305l-29 -149h-303l-96 -549q-10 -61 -10 -94q0 -107 129 -107q34 0 91 13.5t85 25.5l-27 -145q-93 -45 -211 -45q-119 0 -186 73q-57 62 -57 162q0 49 10 107l98 559h-205z" horiz-adv-x="784" unicode="t"/><glyph d="M100 287q0 47 9 102l114 647h174l-112 -637q-6 -40 -6 -77q0 -92 49 -144q48 -51 137 -51q96 0 180 88q97 107 133 315l90 506h174l-182 -1036h-143v133q-49 -75 -133.5 -117.5t-171.5 -42.5q-132 0 -215 74q-97 84 -97 240z" horiz-adv-x="1175" unicode="u"/><glyph d="M53 1036h172l154 -831l432 831h190l-557 -1036h-188z" horiz-adv-x="972" unicode="v"/><glyph d="M129 1036h170l55 -786l396 774h141l131 -778l342 790h180l-463 -1036h-163l-134 788l-403 -788h-170z" horiz-adv-x="1556" unicode="w"/><glyph d="M-92 0l450 535l-260 501h187l200 -391l328 391h215l-455 -518l283 -518h-188l-213 412l-338 -412h-209z" horiz-adv-x="1015" unicode="x"/><glyph d="M-131 -375l25 135q79 -49 151 -49q88 0 133 82l121 219l-227 1024h182l168 -811l432 811h193l-711 -1296q-96 -178 -266 -178q-107 0 -201 63z" horiz-adv-x="1017" unicode="y"/><glyph d="M-29 0l29 154l717 731h-588l27 151h807l-29 -153l-717 -731h602l-28 -152h-820z" horiz-adv-x="1007" unicode="z"/><glyph d="M70 586l26 147q73 -3 147 40.5t87 113.5l65 354q32 167 121 239t252 72h53l-22 -129h-54q-106 0 -150.5 -49t-64.5 -160l-59 -329q-15 -88 -77 -150.5t-154 -75.5v-4q82 -20 122 -81.5t27 -147.5l-53 -313q-8 -54 -8 -78q0 -51 13.5 -82.5t44 -45.5t60.5 -18t82 -4 l-22 -129h-55q-128 0 -197.5 63t-69.5 189q0 50 9 96l51 291q13 87 -27 129q-59 62 -147 62z" horiz-adv-x="706" unicode="{"/><glyph d="M201 -244v1796h141v-1796h-141z" horiz-adv-x="542" unicode="|"/><glyph d="M-129 -244l23 129h53q102 0 149 53.5t66 155.5l59 330q15 87 81 151.5t159 77.5v4q-93 23 -132 89t-22 167l49 283q23 130 -17 178.5t-175 48.5l22 129h56q320 0 264 -317l-57 -322q-15 -96 22 -135q52 -55 152 -55l-27 -148q-91 4 -158.5 -47.5t-81.5 -132.5l-53 -301 q-21 -124 -61 -195t-116.5 -107t-201.5 -36h-53z" horiz-adv-x="706" unicode="}"/><glyph d="M117 614q90 95 156 127.5t145 32.5q71 0 164 -35q25 -9 76.5 -33.5t78.5 -33.5q46 -17 80 -17q51 0 94.5 18.5t104.5 80.5l102 -117q-92 -95 -157.5 -127.5t-143.5 -32.5q-95 0 -239 70q-38 19 -54.5 26.5t-49 17t-58.5 9.5q-50 0 -94 -18.5t-105 -81.5z" horiz-adv-x="1300" unicode="~"/><glyph d="M66 -422l81 459l146 553h119l-47 -553l-82 -459h-217zM276 807l41 223h220l-41 -223h-220z" horiz-adv-x="669" unicode="¡"/><glyph d="M125 600q0 94 18 184.5t57 175t95.5 150t138.5 107t180 47.5l33 188h125l-35 -197q136 -26 219.5 -120.5t83.5 -239.5q0 -5 -1 -16.5t-1 -16.5h-178q0 4 1 11.5t1 11.5q0 83 -40 141t-111 78l-140 -780q85 7 147 61.5t91 140.5h174q-24 -152 -150 -251t-288 -101 l-31 -174h-125l33 188q-136 36 -216.5 145.5t-80.5 266.5zM303 606q0 -144 78 -219q36 -32 70 -45l135 768q-82 -17 -146 -84q-70 -71 -103.5 -187.5t-33.5 -232.5z" unicode="¢"/><glyph d="M8 0l29 162q158 3 186 164l62 352h-164l26 149h164l43 248q30 172 143.5 275.5t280.5 103.5q152 0 247 -88.5t95 -228.5q0 -31 -6 -58h-174q6 42 6 45q0 84 -49 130t-137 46q-93 0 -154 -68.5t-76 -156.5l-43 -248h330l-26 -149h-328l-66 -367q-24 -128 -112 -151v-4h422 q78 0 125 46t61 120h172q-19 -155 -121.5 -238.5t-269.5 -83.5h-666z" unicode="£"/><glyph d="M25 106l161 140q-86 123 -86 274q0 152 86 275l-161 133l135 135l137 -158q121 82 266 82q146 0 264 -82l142 160l133 -137l-160 -133q86 -123 86 -275q0 -151 -86 -274l160 -140l-131 -131l-144 160q-120 -84 -264 -84q-140 0 -264 84l-141 -160zM266 520 q0 -128 79.5 -218.5t217.5 -90.5q140 0 218.5 87.5t78.5 221.5q0 131 -81 219t-216 88q-145 0 -221 -84.5t-76 -222.5z" unicode="¤"/><glyph d="M29 346l20 125h338l33 186h-338l22 125h248l-252 641h183l245 -632l455 632h203l-479 -641h270l-23 -125h-360l-33 -186h361l-21 -125h-360l-62 -346h-176l62 346h-336z" unicode="¥"/><glyph d="M217 -102v630h156v-630h-156zM217 922v632h156v-632h-156z" horiz-adv-x="557" unicode="¦"/><glyph d="M53 -207q0 41 6 78h170q-4 -18 -4 -57q0 -76 51.5 -120t129.5 -44q90 0 153.5 57.5t63.5 147.5q0 83 -60 143l-352 350q-44 42 -68 101.5t-24 121.5q0 205 231 330q-49 69 -49 172q0 174 115.5 278.5t290.5 104.5q134 0 234.5 -81.5t100.5 -209.5q0 -28 -8 -78h-170 q6 27 6 58q0 73 -51.5 118.5t-128.5 45.5q-94 0 -155.5 -55.5t-61.5 -149.5q0 -84 59 -143l353 -351q44 -42 68 -101.5t24 -121.5q0 -204 -232 -330q50 -70 50 -172q0 -174 -116.5 -278.5t-291.5 -104.5q-138 0 -236 83t-98 208zM293 606q0 -82 49 -131l320 -323 q63 31 102 83.5t39 118.5q0 80 -49 129l-320 324q-63 -31 -102 -83t-39 -118z" horiz-adv-x="1142" unicode="§"/><glyph d="M106 1227l33 188h189l-33 -188h-189zM467 1227l33 188h188l-33 -188h-188z" horiz-adv-x="585" unicode="¨"/><glyph d="M139 725q0 155 56.5 294.5t154 240.5t235.5 160t294 59q208 0 378 -100t265.5 -272t95.5 -380t-95.5 -380.5t-265.5 -273t-378 -100.5q-156 0 -294 59t-235.5 159.5t-154 239.5t-56.5 294zM276 725q0 -178 74.5 -319t212.5 -221.5t316 -80.5t315.5 81t212 222.5 t74.5 319.5t-74.5 319t-212 221.5t-315.5 80.5t-316 -81t-212.5 -222.5t-74.5 -319.5zM524 725q0 110 42.5 201t127 147.5t197.5 56.5q140 0 234.5 -82t105.5 -212h-156q-10 80 -60.5 120.5t-123.5 40.5q-94 0 -152 -71q-61 -75 -61 -201q0 -128 59 -201q58 -71 154 -71 q73 0 123.5 40.5t60.5 120.5h156q-12 -131 -107.5 -213t-232.5 -82q-92 0 -167 40t-122 108q-42 61 -60 121t-18 137z" horiz-adv-x="1757" unicode="©"/><glyph d="M141 862q0 41 14.5 80.5t46 77t89.5 62.5t135 30l231 14v54q0 86 -36 118q-42 39 -127 39q-95 0 -140 -45q-37 -37 -37 -98h-137q3 128 91.5 193t222.5 65q110 0 180 -42t100 -112q21 -49 21 -122v-381q0 -29 10 -39.5t31 -10.5l36 5v-105q-39 -20 -90 -20t-83 32.5 t-35 81.5q-35 -57 -101 -90t-147 -33q-129 0 -202 72.5t-73 173.5zM285 866q0 -57 36.5 -94t114.5 -37q97 0 156 62q65 65 65 176v43l-204 -12q-69 -3 -118.5 -37.5t-49.5 -100.5z" horiz-adv-x="983" unicode="ª"/><glyph d="M68 614l419 467l103 -88l-311 -387l172 -399l-127 -70zM547 614l418 467l102 -88l-309 -387l170 -399l-125 -70z" horiz-adv-x="1118" unicode="«"/><glyph d="M109 541v157h993v-495h-160v338h-833z" horiz-adv-x="1271" unicode="¬"/><glyph d="M106 537l29 161h608l-28 -161h-609z" horiz-adv-x="886" unicode="­"/><glyph d="M139 725q0 155 56.5 294.5t154 240.5t235.5 160t294 59q208 0 378 -100t265.5 -272t95.5 -380t-95.5 -380.5t-265.5 -273t-378 -100.5q-156 0 -294 59t-235.5 159.5t-154 239.5t-56.5 294zM276 725q0 -178 74.5 -319t212.5 -221.5t316 -80.5t315.5 81t212 222.5 t74.5 319.5t-74.5 319t-212 221.5t-315.5 80.5t-316 -81t-212.5 -222.5t-74.5 -319.5zM623 346v784h288q118 0 198.5 -65t80.5 -180q0 -165 -141 -228l145 -311h-150l-131 289h-153v-289h-137zM758 762h153q64 0 100 30.5t36 92.5q0 57 -38.5 88t-97.5 31h-153v-242z" horiz-adv-x="1757" unicode="®"/><glyph d="M106 1204l25 139h569l-24 -139h-570z" horiz-adv-x="598" unicode="¯"/><glyph d="M203 1143q0 147 96 241.5t242 94.5t243 -94.5t97 -241.5t-97 -241.5t-243 -94.5t-242 94.5t-96 241.5zM356 1143q0 -84 52.5 -137.5t132.5 -53.5t133 53.5t53 137.5t-53 137t-133 53t-132.5 -53t-52.5 -137z" horiz-adv-x="935" unicode="°"/><glyph d="M129 0v141h899v-141h-899zM129 680v143h379v379h143v-379h377v-143h-377v-383h-143v383h-379z" horiz-adv-x="1157" unicode="±"/><glyph d="M176 702l23 129l360 267q34 25 51 40.5t35.5 45t18.5 61.5q0 43 -32 67.5t-75 24.5q-66 0 -110 -38.5t-56 -104.5h-145q25 125 113.5 198.5t215.5 73.5q99 0 167.5 -57t68.5 -149q0 -40 -13 -76.5t-29.5 -62.5t-48 -56t-53.5 -47t-61 -45l-186 -135h340l-23 -136h-561z" horiz-adv-x="935" unicode="²"/><glyph d="M193 913q0 21 2 31h137q-2 -8 -2 -26q0 -54 41 -84q39 -29 94 -29q64 0 112 31.5t48 91.5q0 27 -12 46.5t-28.5 29.5t-42.5 15.5t-45.5 7t-45.5 1.5l20 117q29 0 44 0.5t43 3.5t43.5 10t33 18.5t25.5 32t8 47.5q0 44 -33.5 70.5t-83.5 26.5q-65 0 -106.5 -33t-53.5 -96 h-145q22 117 100 178q82 65 217 65q63 0 119 -21.5t90 -62.5q43 -53 43 -114q0 -66 -41.5 -118t-105.5 -67q42 -11 72 -55.5t30 -85.5q0 -64 -27 -114.5t-72.5 -80.5t-101 -45.5t-116.5 -15.5q-106 0 -183 61t-77 164z" horiz-adv-x="872" unicode="³"/><glyph d="M106 1231l394 250l71 -150l-413 -203z" horiz-adv-x="491" unicode="´"/><glyph d="M170 -410v1446h174v-655q0 -123 51.5 -185.5t169.5 -62.5q97 0 172 78q86 89 86 287v538h174v-1036h-151l-15 158q-38 -86 -125 -134.5t-182 -48.5q-51 0 -101 15.5t-79 38.5v-439h-174z" horiz-adv-x="1200" unicode="µ"/><glyph d="M172 1014q0 192 132.5 315t336.5 123h664l-25 -141h-141l-275 -1567h-149l274 1567h-229l-275 -1567h-153l164 936q-134 0 -229 98t-95 236z" horiz-adv-x="1337" unicode="¶"/><glyph d="M141 506l43 244h242l-43 -244h-242z" horiz-adv-x="602" unicode="·"/><glyph d="M-137 -397l211 276h159l-204 -360z" horiz-adv-x="348" unicode="¸"/><glyph d="M186 1155l29 160l223 137h133l-133 -745h-143l102 577z" horiz-adv-x="688" unicode="¹"/><glyph d="M190 1034q0 211 113 324q94 94 238 94q145 0 239 -94q111 -111 111 -324q0 -214 -111 -325q-95 -95 -239 -95q-143 0 -238 95q-113 113 -113 325zM336 1034q0 -170 70 -243q51 -54 135 -54q86 0 137 54q70 73 70 243q0 169 -70 242q-50 53 -137 53q-85 0 -135 -53 q-70 -73 -70 -242z" horiz-adv-x="983" unicode="º"/><glyph d="M18 227l312 387l-176 398l127 67l260 -473l-420 -467zM498 227l309 387l-174 398l127 67l258 -473l-418 -467z" horiz-adv-x="1118" unicode="»"/><glyph d="M162 43l1308 1442l101 -82l-1313 -1446zM244 1155l28 160l224 137h133l-133 -745h-144l103 577zM897 154l25 141l376 461h166l-389 -482h211l27 160h139l-27 -160h121l-22 -120h-121l-27 -154h-139l27 154h-367z" horiz-adv-x="1763" unicode="¼"/><glyph d="M162 43l1308 1442l101 -82l-1313 -1446zM244 1155l28 160l224 137h133l-133 -745h-144l103 577zM967 0l22 129l361 266q32 24 50 40.5t36 46t18 61.5q0 43 -31.5 67.5t-74.5 24.5q-66 0 -110 -38.5t-56 -104.5h-146q25 125 114 198.5t216 73.5q99 0 167.5 -57.5 t68.5 -149.5q0 -40 -13 -76.5t-29.5 -62.5t-48 -56t-53.5 -47t-61 -45l-187 -135h340l-22 -135h-561z" horiz-adv-x="1828" unicode="½"/><glyph d="M193 913q0 21 2 31h137q-2 -8 -2 -26q0 -54 41 -84q39 -29 94 -29q64 0 112 31.5t48 91.5q0 27 -12 46.5t-28.5 29.5t-42.5 15.5t-45.5 7t-45.5 1.5l20 117q29 0 44 0.5t43 3.5t43.5 10t33 18.5t25.5 32t8 47.5q0 44 -33.5 70.5t-83.5 26.5q-65 0 -106.5 -33t-53.5 -96 h-145q22 117 100 178q82 65 217 65q63 0 119 -21.5t90 -62.5q43 -53 43 -114q0 -66 -41.5 -118t-105.5 -67q42 -11 72 -55.5t30 -85.5q0 -64 -27 -114.5t-72.5 -80.5t-101 -45.5t-116.5 -15.5q-106 0 -183 61t-77 164zM266 43l1309 1442l100 -82l-1313 -1446zM1001 154 l25 141l377 461h166l-389 -482h211l26 160h139l-26 -160h121l-23 -120h-121l-26 -154h-140l27 154h-367z" horiz-adv-x="1867" unicode="¾"/><glyph d="M20 -94q0 166 130 303q48 50 144 112.5t132 100.5q67 70 84 176l8 51h160l-8 -71q-16 -155 -101 -246q-41 -44 -133 -105.5t-129 -97.5q-27 -26 -40 -40.5t-31.5 -41.5t-26.5 -59.5t-8 -73.5q0 -70 45 -125q62 -74 184 -74q126 0 204 75t99 196h187q-32 -181 -142 -291 q-64 -64 -158 -100.5t-200 -36.5q-188 0 -301 110q-99 94 -99 238zM512 811l39 225h219l-39 -225h-219z" horiz-adv-x="1013" unicode="¿"/><glyph d="M-115 0l768 1452h213l260 -1452h-182l-57 344h-633l-176 -344h-193zM342 516h514l-127 754zM580 1753l110 141l305 -252l-71 -92z" horiz-adv-x="1259" unicode="À"/><glyph d="M-115 0l768 1452h213l260 -1452h-182l-57 344h-633l-176 -344h-193zM342 516h514l-127 754zM549 1647l393 249l72 -149l-414 -203z" horiz-adv-x="1259" unicode="Á"/><glyph d="M-115 0l768 1452h213l260 -1452h-182l-57 344h-633l-176 -344h-193zM342 516h514l-127 754zM461 1649l303 231h117l217 -235l-109 -101l-182 201l-260 -199z" horiz-adv-x="1259" unicode="Â"/><glyph d="M-115 0l768 1452h213l260 -1452h-182l-57 344h-633l-176 -344h-193zM342 516h514l-127 754zM440 1712q57 53 111 82t117 29q48 0 91.5 -22.5t83.5 -45t79 -22.5q75 0 139 61l61 -86q-107 -111 -227 -111q-52 0 -97 21.5t-83 43t-74 21.5q-68 0 -135 -57z" horiz-adv-x="1259" unicode="Ã"/><glyph d="M-115 0l768 1452h213l260 -1452h-182l-57 344h-633l-176 -344h-193zM342 516h514l-127 754zM506 1616l33 188h188l-33 -188h-188zM866 1616l33 188h188l-32 -188h-189z" horiz-adv-x="1259" unicode="Ä"/><glyph d="M-115 0l733 1384q-44 34 -69 85t-25 108q0 99 68 170.5t180 71.5t181 -72t69 -170q0 -70 -37 -129.5t-102 -89.5l243 -1358h-182l-57 344h-633l-176 -344h-193zM342 516h514l-127 754zM649 1577q0 -46 27.5 -82t71.5 -43h49q44 7 71 43t27 82q0 53 -34 90t-89 37t-89 -37 t-34 -90z" horiz-adv-x="1259" unicode="Å"/><glyph d="M-129 0l913 1452h1102l-31 -170h-681l-74 -420h586l-31 -172h-586l-92 -518h692l-31 -172h-876l69 387h-516l-237 -387h-207zM422 559h440l127 729h-119z" horiz-adv-x="1863" unicode="Æ"/><glyph d="M82 518q0 220 68.5 443.5t205.5 355.5q169 162 400 162q220 0 362 -148q64 -67 98.5 -156t34.5 -182h-188q0 141 -92 230q-85 82 -226 82q-147 0 -262 -115q-102 -102 -158.5 -296.5t-56.5 -365.5q0 -167 85.5 -274t248.5 -107q71 0 137 26t109 69q89 86 113 184h190 q-20 -94 -74.5 -182.5t-130.5 -149.5q-150 -121 -354 -121q-156 0 -273 72.5t-177 195.5t-60 277zM264 -391l211 276h160l-205 -360z" horiz-adv-x="1265" unicode="Ç"/><glyph d="M76 0l254 1452h958l-28 -168h-775l-79 -442h686l-31 -170h-682l-90 -504h782l-27 -168h-968zM631 1761l110 142l306 -252l-72 -92z" horiz-adv-x="1265" unicode="È"/><glyph d="M76 0l254 1452h958l-28 -168h-775l-79 -442h686l-31 -170h-682l-90 -504h782l-27 -168h-968zM637 1647l393 249l72 -149l-414 -203z" horiz-adv-x="1265" unicode="É"/><glyph d="M76 0l254 1452h958l-28 -168h-775l-79 -442h686l-31 -170h-682l-90 -504h782l-27 -168h-968zM496 1649l303 231h116l218 -235l-109 -101l-182 201l-260 -199z" horiz-adv-x="1265" unicode="Ê"/><glyph d="M76 0l254 1452h958l-28 -168h-775l-79 -442h686l-31 -170h-682l-90 -504h782l-27 -168h-968zM561 1616l33 188h188l-32 -188h-189zM922 1616l32 188h189l-33 -188h-188z" horiz-adv-x="1265" unicode="Ë"/><glyph d="M76 0l256 1452h188l-256 -1452h-188zM238 1753l110 141l305 -252l-71 -92z" horiz-adv-x="595" unicode="Ì"/><glyph d="M70 0l256 1452h188l-256 -1452h-188zM199 1647l393 249l72 -149l-414 -203z" horiz-adv-x="595" unicode="Í"/><glyph d="M76 0l256 1452h188l-256 -1452h-188zM135 1649l303 231h117l217 -235l-108 -101l-183 201l-260 -199z" horiz-adv-x="595" unicode="Î"/><glyph d="M70 0l256 1452h188l-256 -1452h-188zM170 1616l33 188h188l-33 -188h-188zM530 1616l33 188h189l-33 -188h-189z" horiz-adv-x="595" unicode="Ï"/><glyph d="M76 0l121 686h-105l25 135h104l111 631h465q227 0 361 -147.5t134 -376.5q0 -214 -66.5 -429.5t-199.5 -344.5q-160 -154 -422 -154h-528zM289 168h338q77 0 151.5 29t122.5 77q99 98 154 288t55 356q0 160 -87.5 263t-246.5 103h-291l-82 -463h345l-25 -135h-342z" horiz-adv-x="1378" unicode="Ð"/><glyph d="M70 0l256 1452h209l497 -1192l205 1192h184l-256 -1452h-209l-497 1188l-205 -1188h-184zM547 1700q57 53 110.5 81.5t116.5 28.5q48 0 91.5 -22.5t83.5 -45t79 -22.5q73 0 139 62l62 -86q-107 -111 -228 -111q-41 0 -78.5 13.5t-61 29.5t-54 29.5t-59.5 13.5 q-69 0 -136 -57z" horiz-adv-x="1503" unicode="Ñ"/><glyph d="M82 518q0 139 26.5 281t91 285t158.5 233q169 162 392 162q119 0 216 -42.5t159.5 -116.5t96 -173t33.5 -213q0 -141 -25 -281.5t-88.5 -284t-156.5 -233.5q-169 -162 -393 -162q-156 0 -273 72.5t-177 195.5t-60 277zM268 528q0 -167 85.5 -274t248.5 -107 q143 0 256 113q101 101 155 295.5t54 368.5q0 168 -83 274.5t-245 106.5q-139 0 -254 -115q-102 -102 -159.5 -297t-57.5 -365zM635 1769l110 142l306 -252l-72 -92z" horiz-adv-x="1341" unicode="Ò"/><glyph d="M82 518q0 139 26.5 281t91 285t158.5 233q169 162 392 162q119 0 216 -42.5t159.5 -116.5t96 -173t33.5 -213q0 -141 -25 -281.5t-88.5 -284t-156.5 -233.5q-169 -162 -393 -162q-156 0 -273 72.5t-177 195.5t-60 277zM268 528q0 -167 85.5 -274t248.5 -107 q143 0 256 113q101 101 155 295.5t54 368.5q0 168 -83 274.5t-245 106.5q-139 0 -254 -115q-102 -102 -159.5 -297t-57.5 -365zM580 1657l393 250l71 -150l-413 -203z" horiz-adv-x="1341" unicode="Ó"/><glyph d="M82 518q0 139 26.5 281t91 285t158.5 233q169 162 392 162q119 0 216 -42.5t159.5 -116.5t96 -173t33.5 -213q0 -141 -25 -281.5t-88.5 -284t-156.5 -233.5q-169 -162 -393 -162q-156 0 -273 72.5t-177 195.5t-60 277zM268 528q0 -167 85.5 -274t248.5 -107 q143 0 256 113q101 101 155 295.5t54 368.5q0 168 -83 274.5t-245 106.5q-139 0 -254 -115q-102 -102 -159.5 -297t-57.5 -365zM496 1649l303 231h116l218 -235l-109 -101l-182 201l-260 -199z" horiz-adv-x="1341" unicode="Ô"/><glyph d="M82 518q0 139 26.5 281t91 285t158.5 233q169 162 392 162q119 0 216 -42.5t159.5 -116.5t96 -173t33.5 -213q0 -141 -25 -281.5t-88.5 -284t-156.5 -233.5q-169 -162 -393 -162q-156 0 -273 72.5t-177 195.5t-60 277zM268 528q0 -167 85.5 -274t248.5 -107 q143 0 256 113q101 101 155 295.5t54 368.5q0 168 -83 274.5t-245 106.5q-139 0 -254 -115q-102 -102 -159.5 -297t-57.5 -365zM494 1712q58 53 111 82t116 29q48 0 91.5 -22.5t83.5 -45t79 -22.5q75 0 139 61l62 -86q-107 -111 -228 -111q-52 0 -97 21.5t-83 43t-74 21.5 q-68 0 -135 -57z" horiz-adv-x="1341" unicode="Õ"/><glyph d="M82 518q0 139 26.5 281t91 285t158.5 233q169 162 392 162q119 0 216 -42.5t159.5 -116.5t96 -173t33.5 -213q0 -141 -25 -281.5t-88.5 -284t-156.5 -233.5q-169 -162 -393 -162q-156 0 -273 72.5t-177 195.5t-60 277zM268 528q0 -167 85.5 -274t248.5 -107 q143 0 256 113q101 101 155 295.5t54 368.5q0 168 -83 274.5t-245 106.5q-139 0 -254 -115q-102 -102 -159.5 -297t-57.5 -365zM545 1620l33 188h188l-33 -188h-188zM905 1620l33 188h188l-32 -188h-189z" horiz-adv-x="1341" unicode="Ö"/><glyph d="M129 156l455 454l-455 455l111 111l452 -455l457 455l111 -111l-457 -455l457 -454l-111 -111l-455 455l-454 -455z" horiz-adv-x="1388" unicode="×"/><glyph d="M82 518q0 139 26.5 281t91 285t158.5 233q169 162 392 162q161 0 282 -78l109 172l102 -51l-123 -197q135 -147 135 -391q0 -141 -25 -282t-88.5 -284t-156.5 -233q-169 -162 -393 -162q-156 0 -279 76l-118 -190l-105 53l133 211q-141 150 -141 395zM268 528 q0 -142 60 -239l606 958q-77 58 -195 58q-139 0 -254 -115q-102 -102 -159.5 -297t-57.5 -365zM412 203q78 -56 190 -56q143 0 256 113q101 101 155 295.5t54 368.5q0 143 -53 233z" horiz-adv-x="1341" unicode="Ø"/><glyph d="M141 428q0 76 11 141l155 883h185l-160 -903q-8 -49 -8 -115q0 -140 75 -213q43 -42 101 -60t141 -18q151 0 251 100.5t126 248.5l170 960h184l-170 -965q-51 -295 -270 -432q-129 -82 -303 -82q-242 0 -379 146q-109 120 -109 309zM639 1753l111 141l305 -252l-72 -92z" horiz-adv-x="1417" unicode="Ù"/><glyph d="M141 428q0 76 11 141l155 883h185l-160 -903q-8 -49 -8 -115q0 -140 75 -213q43 -42 101 -60t141 -18q151 0 251 100.5t126 248.5l170 960h184l-170 -965q-51 -295 -270 -432q-129 -82 -303 -82q-242 0 -379 146q-109 120 -109 309zM637 1647l393 249l72 -149l-414 -203z" horiz-adv-x="1417" unicode="Ú"/><glyph d="M139 432q0 64 13 137l155 883h185l-160 -903q-10 -62 -10 -111q0 -144 84.5 -217.5t236.5 -73.5t250 95.5t125 249.5l170 960h184l-170 -965q-41 -233 -189.5 -373.5t-379.5 -140.5q-222 0 -358 125.5t-136 333.5zM547 1649l303 231h117l217 -235l-109 -101l-182 201 l-260 -199z" horiz-adv-x="1417" unicode="Û"/><glyph d="M141 428q0 76 11 141l155 883h185l-160 -903q-8 -49 -8 -115q0 -140 75 -213q43 -42 101 -60t141 -18q151 0 251 100.5t126 248.5l170 960h184l-170 -965q-51 -295 -270 -432q-129 -82 -303 -82q-242 0 -379 146q-109 120 -109 309zM582 1618l32 188h189l-33 -188h-188z M942 1618l33 188h188l-33 -188h-188z" horiz-adv-x="1417" unicode="Ü"/><glyph d="M113 1452h186l260 -690l500 690h207l-641 -864l-103 -588h-186l106 588zM496 1632l393 250l72 -149l-414 -203z" horiz-adv-x="1136" unicode="Ý"/><glyph d="M72 0l256 1454h184l-47 -272h297q181 0 302.5 -98.5t121.5 -276.5q0 -120 -41.5 -217.5t-114.5 -162t-172.5 -99.5t-216.5 -35h-334l-51 -293h-184zM336 459h311q158 0 253 89t95 245q0 113 -75.5 168t-192.5 55h-293z" horiz-adv-x="1234" unicode="Þ"/><glyph d="M70 874l26 156h176l7 35q33 194 154 311t306 117q166 0 270.5 -96t104.5 -242q0 -132 -75 -236.5t-201 -125.5q118 -26 187 -121.5t69 -220.5q0 -204 -135.5 -339t-344.5 -135q-112 0 -219 35l25 144q86 -25 176 -25q150 0 234.5 88t84.5 238q0 124 -79.5 193t-198.5 69 h-55l26 151h76q109 0 180.5 84t71.5 195q0 94 -57 145.5t-150 51.5q-111 0 -181.5 -80t-92.5 -205l-185 -1061h-176l152 874h-176z" horiz-adv-x="1224" unicode="ß"/><glyph d="M53 416q0 146 50.5 284.5t146.5 231.5q134 131 315 131q88 0 162 -39q83 -44 121 -121l51 133h143l-182 -1036h-133v154q-43 -78 -131 -129.5t-176 -51.5q-157 0 -252 103q-115 121 -115 340zM231 416q0 -147 66 -223q60 -70 149 -70q77 0 144 49t109.5 126t67 167.5 t24.5 177.5q0 114 -37 170q-61 100 -179 100q-108 0 -196 -88q-72 -73 -110 -188t-38 -221zM436 1335l111 142l305 -252l-72 -92z" horiz-adv-x="1161" unicode="à"/><glyph d="M53 416q0 146 50.5 284.5t146.5 231.5q134 131 315 131q88 0 162 -39q83 -44 121 -121l51 133h143l-182 -1036h-133v154q-43 -78 -131 -129.5t-176 -51.5q-157 0 -252 103q-115 121 -115 340zM231 416q0 -147 66 -223q60 -70 149 -70q77 0 144 49t109.5 126t67 167.5 t24.5 177.5q0 114 -37 170q-61 100 -179 100q-108 0 -196 -88q-72 -73 -110 -188t-38 -221zM412 1239l393 250l72 -150l-414 -202z" horiz-adv-x="1161" unicode="á"/><glyph d="M53 416q0 146 50.5 284.5t146.5 231.5q134 131 315 131q88 0 162 -39q83 -44 121 -121l51 133h143l-182 -1036h-133v154q-43 -78 -131 -129.5t-176 -51.5q-157 0 -252 103q-115 121 -115 340zM231 416q0 -147 66 -223q60 -70 149 -70q77 0 144 49t109.5 126t67 167.5 t24.5 177.5q0 104 -39 170q-60 100 -177 100q-108 0 -196 -88q-72 -73 -110 -188t-38 -221zM336 1239l266 236h113l186 -244l-106 -82l-150 188l-223 -192z" horiz-adv-x="1161" unicode="â"/><glyph d="M53 416q0 146 50.5 284.5t146.5 231.5q134 131 315 131q88 0 162 -39q83 -44 121 -121l51 133h143l-182 -1036h-133v154q-43 -78 -131 -129.5t-176 -51.5q-157 0 -252 103q-115 121 -115 340zM231 416q0 -147 66 -223q60 -70 149 -70q77 0 144 49t109.5 126t67 167.5 t24.5 177.5q0 114 -37 170q-61 100 -179 100q-108 0 -196 -88q-72 -73 -110 -188t-38 -221zM328 1329q58 53 111 82t116 29q48 0 91.5 -22.5t83.5 -45t79 -22.5q75 0 139 61l62 -86q-107 -111 -228 -111q-52 0 -97 21.5t-83 43t-74 21.5q-68 0 -135 -57z" horiz-adv-x="1161" unicode="ã"/><glyph d="M53 416q0 146 50.5 284.5t146.5 231.5q134 131 315 131q88 0 162 -39q83 -44 121 -121l51 133h143l-182 -1036h-133v154q-43 -78 -131 -129.5t-176 -51.5q-157 0 -252 103q-115 121 -115 340zM231 416q0 -147 66 -223q60 -70 149 -70q77 0 144 49t109.5 126t67 167.5 t24.5 177.5q0 114 -37 170q-61 100 -179 100q-108 0 -196 -88q-72 -73 -110 -188t-38 -221zM381 1233l33 188h188l-33 -188h-188zM741 1233l33 188h189l-33 -188h-189z" horiz-adv-x="1161" unicode="ä"/><glyph d="M53 416q0 146 50.5 284.5t146.5 231.5q134 131 315 131q88 0 162 -39q83 -44 121 -121l51 133h143l-182 -1036h-133v154q-43 -78 -131 -129.5t-176 -51.5q-157 0 -252 103q-115 121 -115 340zM231 416q0 -147 66 -223q60 -70 149 -70q77 0 144 49t109.5 126t67 167.5 t24.5 177.5q0 114 -37 170q-61 100 -179 100q-108 0 -196 -88q-72 -73 -110 -188t-38 -221zM453 1374q0 89 61.5 154t163.5 65t163.5 -65t61.5 -154t-61.5 -154t-163.5 -65t-163.5 65t-61.5 154zM565 1374q0 -47 31.5 -79.5t81.5 -32.5t80 32.5t30 79.5q0 48 -30.5 81.5 t-79.5 33.5q-50 0 -81.5 -34t-31.5 -81z" horiz-adv-x="1161" unicode="å"/><glyph d="M16 248q0 163 115.5 262.5t280.5 99.5h325q15 74 15 127q0 80 -43 125q-53 56 -140 56q-95 0 -155 -35q-42 -25 -71.5 -65t-39.5 -87h-170q35 161 160 246.5t295 85.5q92 0 175.5 -42t115.5 -116q52 60 98 86q117 72 244 72q177 0 284 -119q109 -120 109 -313 q0 -82 -21 -168h-712q-2 -18 -2 -55q0 -130 67 -207.5t187 -77.5q77 0 140 45.5t97 122.5h174q-47 -148 -162.5 -233t-265.5 -85q-112 0 -209.5 57.5t-142.5 157.5q-103 -144 -268 -194q-74 -21 -156 -21q-74 0 -142.5 28t-109.5 75q-72 82 -72 172zM195 270q0 -67 50 -107 t120 -40q118 0 208 76q114 96 144 274h-287q-102 0 -168.5 -55.5t-66.5 -147.5zM903 612h539q2 14 2 39q0 113 -62 188.5t-172 75.5q-117 0 -202 -92q-72 -77 -105 -211z" horiz-adv-x="1730" unicode="æ"/><glyph d="M53 399q0 96 19.5 189.5t61 179.5t101.5 151.5t147 104.5t191 39q171 0 283.5 -100t112.5 -269q0 -5 -1 -16t-1 -16h-179q0 4 1.5 11t1.5 11q0 103 -62 166t-164 63q-111 0 -196 -88q-70 -71 -104 -187.5t-34 -231.5q0 -145 78 -220q66 -63 168 -63q94 0 162 56t98 147 h174q-24 -153 -151.5 -253t-290.5 -100q-185 0 -300.5 118t-115.5 308zM147 -397l211 276h160l-205 -360z" horiz-adv-x="1067" unicode="ç"/><glyph d="M53 432q0 139 50.5 271t142.5 223q137 137 338 137q183 0 293 -119q112 -121 112 -313q0 -86 -20 -168h-736q-2 -18 -2 -55q0 -129 70 -207t193 -78q81 0 145 45t98 123h181q-47 -148 -167.5 -233t-275.5 -85q-111 0 -202 46.5t-148 138.5q-72 119 -72 274zM256 612h555 q2 14 2 39q0 113 -63 188.5t-177 75.5q-116 0 -208 -96q-75 -75 -109 -207zM457 1335l110 142l305 -252l-71 -92z" horiz-adv-x="1103" unicode="è"/><glyph d="M53 432q0 139 50.5 271t142.5 223q137 137 338 137q183 0 293 -119q112 -121 112 -313q0 -86 -20 -168h-736q-2 -18 -2 -55q0 -129 70 -207t193 -78q81 0 145 45t98 123h181q-47 -148 -167.5 -233t-275.5 -85q-111 0 -202 46.5t-148 138.5q-72 119 -72 274zM256 612h555 q2 14 2 39q0 113 -63 188.5t-177 75.5q-116 0 -208 -96q-75 -75 -109 -207zM442 1235l394 250l71 -150l-413 -202z" horiz-adv-x="1103" unicode="é"/><glyph d="M53 432q0 139 50.5 271t142.5 223q137 137 338 137q183 0 293 -119q112 -121 112 -313q0 -86 -20 -168h-736q-2 -18 -2 -55q0 -129 70 -207t193 -78q81 0 145 45t98 123h181q-47 -148 -167.5 -233t-275.5 -85q-111 0 -202 46.5t-148 138.5q-72 119 -72 274zM256 612h555 q2 14 2 39q0 113 -63 188.5t-177 75.5q-116 0 -208 -96q-75 -75 -109 -207zM330 1239l266 236h113l186 -244l-107 -82l-149 188l-223 -192z" horiz-adv-x="1103" unicode="ê"/><glyph d="M53 432q0 139 50.5 271t142.5 223q137 137 338 137q183 0 293 -119q112 -121 112 -313q0 -86 -20 -168h-736q-2 -18 -2 -55q0 -129 70 -207t193 -78q81 0 145 45t98 123h181q-47 -148 -167.5 -233t-275.5 -85q-111 0 -202 46.5t-148 138.5q-72 119 -72 274zM256 612h555 q2 14 2 39q0 113 -63 188.5t-177 75.5q-116 0 -208 -96q-75 -75 -109 -207zM367 1227l32 188h189l-33 -188h-188zM727 1227l33 188h188l-33 -188h-188z" horiz-adv-x="1103" unicode="ë"/><glyph d="M57 0l185 1036h178l-184 -1036h-179zM145 1335l111 142l305 -252l-72 -92z" horiz-adv-x="548" unicode="ì"/><glyph d="M57 0l185 1036h180l-184 -1036h-181zM152 1231l393 250l71 -150l-413 -203z" horiz-adv-x="548" unicode="í"/><glyph d="M57 0l185 1036h180l-184 -1036h-181zM82 1239l266 236h113l186 -244l-106 -82l-150 188l-223 -192z" horiz-adv-x="548" unicode="î"/><glyph d="M57 0l185 1036h178l-184 -1036h-179zM86 1227l33 188h188l-33 -188h-188zM446 1227l33 188h189l-33 -188h-189z" horiz-adv-x="548" unicode="ï"/><glyph d="M61 406q0 95 19.5 187.5t62 178t102.5 150t147.5 103t191.5 38.5q55 0 114 -16l-55 157h-246l23 121h174l-55 154h168l59 -154h209l-23 -121h-137l148 -405q28 -76 28 -168q0 -95 -19.5 -187.5t-61.5 -178t-102 -150.5t-147.5 -103.5t-191.5 -38.5q-91 0 -172 37 t-137 103q-99 119 -99 293zM240 410q0 -121 62.5 -204t180.5 -83q71 0 128.5 33.5t94 86.5t61.5 121t35.5 134t10.5 129q0 121 -63 203.5t-181 82.5q-71 0 -128.5 -33.5t-94 -86t-61.5 -120.5t-35 -134t-10 -129z" horiz-adv-x="1120" unicode="ð"/><glyph d="M57 0l183 1036h141v-143q55 77 148 123.5t188 46.5q145 0 227 -82q72 -72 72 -199q0 -36 -17 -147l-112 -635h-174l110 623q15 86 15 114q0 86 -39 125q-47 47 -135 47q-71 0 -139 -45t-111 -110q-68 -103 -92 -248l-91 -506h-174zM367 1329q58 53 111 82t116 29 q48 0 91.5 -22.5t83.5 -45t79 -22.5q75 0 139 61l62 -86q-107 -111 -228 -111q-52 0 -97 21.5t-83 43t-74 21.5q-68 0 -135 -57z" horiz-adv-x="1177" unicode="ñ"/><glyph d="M53 406q0 95 19.5 187.5t61.5 178t102 150t147.5 103t191.5 38.5q91 0 172 -35.5t136 -101.5q100 -121 100 -295q0 -95 -19.5 -187.5t-61.5 -178t-102 -150.5t-147.5 -103.5t-191.5 -38.5q-91 0 -171.5 36t-135.5 102q-101 122 -101 295zM231 410q0 -123 61.5 -205 t182.5 -82q71 0 128.5 33.5t94 86.5t61.5 121t35.5 134t10.5 129q0 123 -61.5 204.5t-182.5 81.5q-71 0 -128.5 -33.5t-94 -86t-61.5 -120.5t-35.5 -134t-10.5 -129zM444 1335l111 142l305 -252l-72 -92z" horiz-adv-x="1110" unicode="ò"/><glyph d="M53 406q0 95 19.5 187.5t61.5 178t102 150t147.5 103t191.5 38.5q91 0 172 -35.5t136 -101.5q100 -121 100 -295q0 -95 -19.5 -187.5t-61.5 -178t-102 -150.5t-147.5 -103.5t-191.5 -38.5q-91 0 -171.5 36t-135.5 102q-101 122 -101 295zM231 410q0 -123 61.5 -205 t182.5 -82q71 0 128.5 33.5t94 86.5t61.5 121t35.5 134t10.5 129q0 123 -61.5 204.5t-182.5 81.5q-71 0 -128.5 -33.5t-94 -86t-61.5 -120.5t-35.5 -134t-10.5 -129zM432 1237l393 250l72 -150l-414 -202z" horiz-adv-x="1110" unicode="ó"/><glyph d="M53 406q0 95 19.5 187.5t61.5 178t102 150t147.5 103t191.5 38.5q91 0 172 -35.5t136 -101.5q100 -121 100 -295q0 -95 -19.5 -187.5t-61.5 -178t-102 -150.5t-147.5 -103.5t-191.5 -38.5q-91 0 -171.5 36t-135.5 102q-101 122 -101 295zM231 410q0 -123 61.5 -205 t182.5 -82q71 0 128.5 33.5t94 86.5t61.5 121t35.5 134t10.5 129q0 123 -61.5 204.5t-182.5 81.5q-71 0 -128.5 -33.5t-94 -86t-61.5 -120.5t-35.5 -134t-10.5 -129zM336 1239l266 236h113l186 -244l-106 -82l-150 188l-223 -192z" horiz-adv-x="1110" unicode="ô"/><glyph d="M53 406q0 95 19.5 187.5t61.5 178t102 150t147.5 103t191.5 38.5q91 0 172 -35.5t136 -101.5q100 -121 100 -295q0 -95 -19.5 -187.5t-61.5 -178t-102 -150.5t-147.5 -103.5t-191.5 -38.5q-91 0 -171.5 36t-135.5 102q-101 122 -101 295zM231 410q0 -123 61.5 -205 t182.5 -82q71 0 128.5 33.5t94 86.5t61.5 121t35.5 134t10.5 129q0 123 -61.5 204.5t-182.5 81.5q-71 0 -128.5 -33.5t-94 -86t-61.5 -120.5t-35.5 -134t-10.5 -129zM336 1341q58 53 111 82t116 29q48 0 91.5 -22.5t83.5 -45t79 -22.5q75 0 139 61l62 -86 q-107 -110 -227 -110q-52 0 -97 21.5t-83 43t-74 21.5q-68 0 -136 -58z" horiz-adv-x="1110" unicode="õ"/><glyph d="M53 406q0 95 19.5 187.5t61.5 178t102 150t147.5 103t191.5 38.5q91 0 172 -35.5t136 -101.5q100 -121 100 -295q0 -95 -19.5 -187.5t-61.5 -178t-102 -150.5t-147.5 -103.5t-191.5 -38.5q-91 0 -171.5 36t-135.5 102q-101 122 -101 295zM231 410q0 -123 61.5 -205 t182.5 -82q71 0 128.5 33.5t94 86.5t61.5 121t35.5 134t10.5 129q0 123 -61.5 204.5t-182.5 81.5q-71 0 -128.5 -33.5t-94 -86t-61.5 -120.5t-35.5 -134t-10.5 -129zM358 1227l33 188h189l-33 -188h-189zM719 1227l33 188h188l-33 -188h-188z" horiz-adv-x="1110" unicode="ö"/><glyph d="M133 535v159h1028v-159h-1028zM526 98v242h234v-242h-234zM526 905v242h234v-242h-234z" horiz-adv-x="1327" unicode="÷"/><glyph d="M53 406q0 95 19.5 187.5t61.5 178t102 150t147.5 103t191.5 38.5q115 0 207 -53l121 188l88 -57l-125 -197q58 -59 87.5 -142t29.5 -171q0 -95 -19.5 -187.5t-61.5 -178t-102 -150.5t-147.5 -103.5t-191.5 -38.5q-101 0 -185 41l-110 -172l-90 60l110 174q-9 8 -32 35 q-101 122 -101 295zM231 410q0 -112 50 -189l415 653q-55 39 -135 39q-71 0 -128.5 -33.5t-94 -86t-61.5 -120.5t-35.5 -134t-10.5 -129zM360 150q56 -27 115 -27q71 0 128.5 33.5t94 86.5t61.5 121t35.5 134t10.5 129q0 98 -35 164z" horiz-adv-x="1118" unicode="ø"/><glyph d="M100 287q0 47 9 102l114 647h174l-112 -637q-6 -40 -6 -77q0 -92 49 -144q48 -51 137 -51q126 0 225 147q58 85 88 256l90 506h174l-182 -1036h-143v133q-49 -75 -133.5 -117.5t-171.5 -42.5q-132 0 -215 74q-97 84 -97 240zM436 1335l111 142l305 -252l-72 -92z" horiz-adv-x="1175" unicode="ù"/><glyph d="M100 287q0 47 9 102l114 647h174l-112 -637q-6 -40 -6 -77q0 -92 49 -144q48 -51 137 -51q126 0 225 147q58 85 88 256l90 506h174l-182 -1036h-143v133q-49 -75 -133.5 -117.5t-171.5 -42.5q-132 0 -215 74q-97 84 -97 240zM459 1235l393 250l72 -150l-414 -202z" horiz-adv-x="1175" unicode="ú"/><glyph d="M100 287q0 47 9 102l114 647h174l-112 -637q-6 -40 -6 -77q0 -92 49 -144q48 -51 137 -51q126 0 225 147q58 85 88 256l90 506h174l-182 -1036h-143v133q-49 -75 -133.5 -117.5t-171.5 -42.5q-132 0 -215 74q-97 84 -97 240zM358 1239l304 268h112l209 -268l-102 -92 l-181 235l-260 -235z" horiz-adv-x="1175" unicode="û"/><glyph d="M100 287q0 47 9 102l114 647h174l-112 -637q-6 -40 -6 -77q0 -92 49 -144q48 -51 137 -51q126 0 225 147q58 85 88 256l90 506h174l-182 -1036h-143v133q-49 -75 -133.5 -117.5t-171.5 -42.5q-132 0 -215 74q-97 84 -97 240zM401 1227l33 188h189l-33 -188h-189z M762 1227l33 188h188l-33 -188h-188z" horiz-adv-x="1175" unicode="ü"/><glyph d="M-131 -377l29 148q80 -50 153 -50q87 0 133 82l115 209l-227 1024h182l168 -811l432 811h193l-711 -1296q-47 -87 -108 -132.5t-148 -45.5q-119 0 -211 61zM406 1235l393 250l71 -150l-413 -202z" horiz-adv-x="1017" unicode="ý"/><glyph d="M-20 -444l337 1923h175l-95 -545q51 62 128.5 95.5t160.5 33.5q82 0 158 -37t123 -100q92 -122 92 -305q0 -92 -19 -182.5t-59.5 -175t-98 -149t-140.5 -103t-181 -38.5q-95 0 -180 44t-127 128l-102 -589h-172zM313 422q0 -60 13.5 -111.5t41.5 -94t76.5 -67 t112.5 -24.5q99 0 180 78q74 70 109 184t35 234q0 58 -13 109.5t-39 95t-72.5 69t-107.5 25.5q-84 0 -157 -56q-76 -57 -117.5 -153.5t-55.5 -206.5q-6 -41 -6 -82z" horiz-adv-x="1191" unicode="þ"/><glyph d="M-131 -375l25 135q79 -49 151 -49q88 0 133 82l121 219l-227 1024h182l168 -811l432 811h193l-711 -1296q-96 -178 -266 -178q-107 0 -201 63zM307 1227l33 188h188l-32 -188h-189zM668 1227l32 188h189l-33 -188h-188z" horiz-adv-x="1017" unicode="ÿ"/><glyph d="M82 518q0 104 16 211.5t49 216.5t88 204t126.5 169t172 117t218.5 43q122 0 225 -51t158 -148l30 172h934l-28 -168h-750l-80 -442h641l-31 -172h-637l-90 -502h758l-27 -168h-944l19 106q-62 -65 -153.5 -99t-186.5 -34q-157 0 -273.5 72t-175.5 194.5t-59 278.5z M268 528q0 -81 20.5 -149t60 -120.5t104 -82t147.5 -29.5q74 0 138 28.5t110.5 76.5t84 113t61.5 135.5t40 147.5t22.5 145t6.5 131q0 80 -18.5 147.5t-56 120.5t-101 83t-146.5 30q-84 0 -156 -38t-122.5 -102.5t-89 -144t-61 -168.5t-33.5 -170.5t-11 -153.5z" horiz-adv-x="2076" unicode="Œ"/><glyph d="M53 406q0 153 49.5 295t145.5 235q130 127 321 127q93 0 179 -47q108 -60 155 -170q52 81 133 137q116 80 258 80q177 0 287 -119q111 -120 111 -313q0 -90 -19 -168h-723q-2 -18 -2 -55q0 -130 67 -207.5t189 -77.5q80 0 141.5 45t96.5 123h180q-47 -148 -164 -233 t-272 -85q-117 0 -214.5 61.5t-137.5 166.5q-69 -117 -166 -172q-58 -32 -106 -44t-116 -12q-176 0 -294 140q-99 119 -99 293zM231 410q0 -122 60.5 -204.5t177.5 -82.5q87 0 162 61q82 68 122 193t40 250q0 78 -24 141t-79.5 104t-134.5 41q-71 0 -128 -33.5t-92.5 -86 t-60 -121t-34 -133.5t-9.5 -129zM971 612h545q2 14 2 39q0 114 -60.5 189t-173.5 75q-119 0 -209 -94q-74 -74 -104 -209z" horiz-adv-x="1806" unicode="œ"/><glyph d="M109 1452h186l260 -690l500 690h207l-641 -864l-103 -588h-186l106 588zM410 1593l32 189h189l-33 -189h-188zM770 1593l33 189h188l-33 -189h-188z" horiz-adv-x="1136" unicode="Ÿ"/><glyph d="M164 1239l266 236h113l186 -244l-106 -82l-150 188l-223 -192z" horiz-adv-x="718" unicode="ˆ"/><glyph d="M129 1329q58 53 111 82t116 29q48 0 91.5 -22.5t83.5 -45t79 -22.5q76 0 140 61l61 -86q-107 -111 -227 -111q-52 0 -97 21.5t-83 43t-74 21.5q-68 0 -135 -57z" horiz-adv-x="729" unicode="˜"/><glyph horiz-adv-x="955"/><glyph horiz-adv-x="1911"/><glyph horiz-adv-x="955"/><glyph horiz-adv-x="1911"/><glyph horiz-adv-x="637"/><glyph horiz-adv-x="477"/><glyph horiz-adv-x="318"/><glyph horiz-adv-x="318"/><glyph horiz-adv-x="238"/><glyph horiz-adv-x="382"/><glyph horiz-adv-x="106"/><glyph d="M106 537l29 161h608l-28 -161h-609z" horiz-adv-x="886" unicode="‐"/><glyph d="M106 537l29 161h608l-28 -161h-609z" horiz-adv-x="886" unicode="‑"/><glyph d="M106 537l29 161h608l-28 -161h-609z" horiz-adv-x="886" unicode="‒"/><glyph d="M106 537l29 161h1055l-29 -161h-1055z" horiz-adv-x="1333" unicode="–"/><glyph d="M106 537l29 161h2017l-28 -161h-2018z" horiz-adv-x="2295" unicode="—"/><glyph d="M164 911l43 240q42 237 258 322l37 -97q-144 -58 -172 -225h129l-43 -240h-252z" horiz-adv-x="555" unicode="‘"/><glyph d="M188 987q84 34 120 84t52 141h-129l43 240h252l-43 -240q-21 -119 -81.5 -197t-176.5 -124z" horiz-adv-x="534" unicode="’"/><glyph d="M-6 -225q84 34 120 84t52 141h-129l43 240h252l-43 -240q-21 -119 -81.5 -197.5t-176.5 -124.5z" horiz-adv-x="563" unicode="‚"/><glyph d="M168 911l43 240q42 237 258 322l37 -97q-144 -58 -172 -225h129l-43 -240h-252zM571 911l43 240q42 237 258 322l37 -97q-144 -58 -172 -225h129l-43 -240h-252z" horiz-adv-x="958" unicode="“"/><glyph d="M186 987q84 34 120 84t52 141h-129l43 240h252l-43 -240q-21 -119 -81.5 -197t-176.5 -124zM590 987q84 34 120 84t52 141h-129l43 240h252l-43 -240q-21 -119 -81.5 -197t-176.5 -124z" horiz-adv-x="937" unicode="”"/><glyph d="M2 -225q84 34 120 84t52 141h-129l43 240h252l-43 -240q-21 -119 -81.5 -197.5t-176.5 -124.5zM408 -225q84 34 120 84t52 141h-129l43 240h251l-43 -240q-21 -119 -81.5 -197.5t-176.5 -124.5z" horiz-adv-x="999" unicode="„"/><glyph d="M166 598q0 110 76.5 189t185.5 79q108 0 184 -78.5t76 -189.5t-76 -189.5t-184 -78.5q-109 0 -185.5 79t-76.5 189z" horiz-adv-x="903" unicode="•"/><glyph d="M25 0l43 236h235l-43 -236h-235zM573 0l43 236h236l-43 -236h-236zM1122 0l43 236h238l-43 -236h-238z" horiz-adv-x="1640" unicode="…"/><glyph horiz-adv-x="382"/><glyph d="M68 614l419 467l103 -88l-311 -387l174 -399l-125 -70z" horiz-adv-x="641" unicode="‹"/><glyph d="M18 227l312 387l-174 398l127 67l258 -473l-420 -467z" horiz-adv-x="641" unicode="›"/><glyph horiz-adv-x="477"/><glyph d="M0 506l23 125h151q0 56 23 162h-146l23 125h151q60 220 205 362q173 170 414 170q249 0 403 -154l-92 -141q-128 131 -321 131q-172 0 -295 -129q-81 -90 -129 -239h583l-78 -125h-538q-15 -65 -23 -162h471l-77 -125h-400q0 -169 102 -270t271 -101q145 0 270 78 l41 -152q-149 -90 -321 -90q-242 0 -389.5 147.5t-153.5 387.5h-168z" unicode="€"/><glyph d="M143 1325l23 127h594l-23 -127h-225l-119 -674h-141l119 674h-228zM731 651l141 801h215l87 -573l290 573h222l-142 -801h-141l115 656l-328 -635h-100l-103 633l-115 -654h-141z" horiz-adv-x="1705" unicode="™"/><glyph d="M0 0v1034h1034v-1034h-1034z" horiz-adv-x="1034" unicode=""/><glyph d="M78 889l26 147h187l35 197q20 108 106.5 180t216.5 72q17 0 33.5 -1t28.5 -2t28.5 -4.5t24 -4.5t26 -6t22 -6t25 -7.5t23.5 -7.5l-26 -148q-98 37 -177 37q-62 0 -106.5 -35.5t-54.5 -93.5l-31 -170h301l-27 -147h-301l-155 -889h-174l157 889h-188zM788 0l185 1036h178 l-184 -1036h-179zM1001 1274l37 205h203l-37 -205h-203z" horiz-adv-x="1280" unicode="ﬁ"/><glyph d="M78 889l26 147h187l35 197q20 108 106.5 180t216.5 72q17 0 33.5 -1t28.5 -2t28.5 -4.5t24 -4.5t26 -6t22 -6t25 -7.5t23.5 -7.5l-26 -148q-98 37 -177 37q-62 0 -106.5 -35.5t-54.5 -93.5l-31 -170h301l-27 -147h-301l-155 -889h-174l157 889h-188zM821 176q0 24 13 98 l213 1205h174l-222 -1246q-2 -8 -2 -22q0 -72 78 -72q38 0 82 13l-24 -142q-55 -22 -123 -22q-95 0 -144 55q-45 51 -45 133z" horiz-adv-x="1316" unicode="ﬂ"/></font>
</defs>
</svg>
